<svg xmlns="http://www.w3.org/2000/svg" width="250" height="249.978" viewBox="0 0 250 249.978"><g transform="translate(3005.037 1461.037)"><rect width="250.001" height="15.625" transform="translate(-3005.037 -1461.037)" fill="#464749"/><rect width="250.001" height="15.625" transform="translate(-3005.037 -1226.684)" fill="#464749"/><path d="M27.759,25.366H49.546q14.278,0,20.3,4.515t6.008,16.333V66.366q0,8.7-3.572,13.124T60.343,85.135q8.888,1.045,12.805,5.316t3.923,13.156V129.74q0,12.024-5.925,16.47t-20.388,4.444h-23Zm15.51,12.542V79.034h3.314q7.489,0,10.1-2.952T59.3,65.154V51.619q0-7.975-2.529-10.847-2.527-2.856-10.188-2.864Zm0,53.5v46.876h3.484q8.188,0,10.978-2.963t2.793-11.675V105.869q0-8.707-2.71-11.587T46.753,91.406Z" transform="translate(-2957.104 -1423.842)" fill="#464749"/><path d="M39.923,25.366H77.39V38.61H56.13V79.386H76.166V92.63H56.13v58.025H39.923Z" transform="translate(-2902.532 -1423.841)" fill="#464749"/></g></svg>