<svg xmlns="http://www.w3.org/2000/svg" xmlns:xlink="http://www.w3.org/1999/xlink" width="380.54" height="358.11" viewBox="0 0 380.54 358.11"><defs><radialGradient id="a" cx="-0.392" cy="-1.454" r="0.55" gradientTransform="matrix(1.449, -0.378, 0.897, 1.401, -0.141, -1.7)" gradientUnits="objectBoundingBox"><stop offset="0" stop-color="#58595b"/><stop offset="0.33" stop-color="#585a5d"/><stop offset="0.49" stop-color="#595f65"/><stop offset="0.62" stop-color="#5b6772"/><stop offset="0.74" stop-color="#5d7385"/><stop offset="0.84" stop-color="#60829e"/><stop offset="0.93" stop-color="#6394bc"/><stop offset="1" stop-color="#67a6da"/></radialGradient></defs><path d="M368.57,19.27a2.4,2.4,0,1,0,2.6,2.19,2.34,2.34,0,0,0-.35-1.05,2.4,2.4,0,0,0-2.25-1.14Z" transform="translate(-7.61)" fill="none"/><path d="M254.12,118.7c-1.23,0-2.45-.14-3.67-.16v.27q.15,3.91.69,7.8a122.418,122.418,0,0,0,7.71,22.75h0a50.147,50.147,0,0,1,7.06-2.86,111.058,111.058,0,0,1-7.6-13.6,97.521,97.521,0,0,1-4.18-14.2Z" transform="translate(-7.61)" fill="none"/><path d="M377.69,14.11q0-6.73-.31-14.11c-29.67,40.27-86.11,51.52-139.73,62.93-53.35,11.34-78.88,44.45-76.2,86.25,3,46.46,78.86,108.38-2,117,23.3,4,42.22-4.94,43.44-27.44,1.45-27.13-32.21-63.29-32-91.07a19.41,19.41,0,0,1,3.53-14.11c13.74,75.23,76.6,94.22,25,209.89,62.35-97.43-.4-140.75-13.3-209.62-1.32-7.06,1.86-13.88,4-14.64,3.92,26.7,29,71.49,40.57,94.29,12.44,24.36,24.55,75.1,8.68,144.63C280.4,227.49,207.73,179,200.89,120.43c-1.64-14.11,29.1-4.62,43-2.29.85,4.85,2.37,10.33,3.53,14.8a61.31,61.31,0,0,0,9.72,17.2c-16.21,9-21.92,25.08-15.43,38,6.7,13.31,23.88,18.2,41.3,9.42s32.72-30,26-43.29c-5.61-11.18-24.92-13.24-41.29-8.45-.3-.65-.6-1.27-.83-1.87a82.549,82.549,0,0,1-7-22.95c-.11-.66-.2-1.38-.29-2.12,50.4,0,107.45-8.11,117.8-94.31l10.75-7.06ZM266,146.39a51.382,51.382,0,0,0-7.06,2.86h0a121.7,121.7,0,0,1-7.71-22.75q-.54-3.89-.69-7.8v-.27c1.22,0,2.44.16,3.67.16a99.18,99.18,0,0,0,4.25,14.11A111.05,111.05,0,0,0,266,146.44ZM368.58,24a2.4,2.4,0,1,1,2.59-2.18,2.341,2.341,0,0,1-.35,1.05A2.39,2.39,0,0,1,368.57,24Z" transform="translate(-7.61)" fill="url(#a)"/><path d="M30.21,201.35a23,23,0,0,1-9.87,2.21q-5.76,0-9-3a10.36,10.36,0,0,1-3.24-8.05,10.49,10.49,0,0,1,3.34-8.26q3.35-3,9.47-3a11.2,11.2,0,0,1,6.33,1.6,6,6,0,0,1,2.7,4.43H26.79a4.1,4.1,0,0,0-2-2.58,8.4,8.4,0,0,0-4.22-.93,9.46,9.46,0,0,0-6.75,2.34,8.31,8.31,0,0,0-2.49,6.38,8.18,8.18,0,0,0,2.44,6.27,9.59,9.59,0,0,0,6.83,2.29,15.75,15.75,0,0,0,6.69-1.28v-5.41H20.64V192h9.57Z" transform="translate(-7.61)" fill="#58595b"/><path d="M38.16,203.23V181.6h9.63a31.873,31.873,0,0,1,3.94.18,5.68,5.68,0,0,1,2.39.87,5.18,5.18,0,0,1,2.22,4.73c0,2.88-1.58,4.65-4.74,5.29a3.16,3.16,0,0,1,2.7,1.08,9.28,9.28,0,0,1,1.11,3.36L56,200c.16.78.32,1.44.47,2a4.19,4.19,0,0,0,.52,1.26H53.7a4.82,4.82,0,0,1-.41-1.14c-.1-.46-.22-1.07-.34-1.83l-.6-3.6a2.84,2.84,0,0,0-1.47-2.34,10.15,10.15,0,0,0-4-.57H41v9.48Zm2.88-12h5.64a14,14,0,0,0,5-.57c1.06-.48,1.59-1.52,1.59-3.11a2.79,2.79,0,0,0-1.62-2.86,14.44,14.44,0,0,0-5-.57H41Z" transform="translate(-7.61)" fill="#58595b"/><path d="M74.22,203.56a11.7,11.7,0,0,1-8.37-3,11.34,11.34,0,0,1,0-16.35,11.77,11.77,0,0,1,8.37-3,11.81,11.81,0,0,1,8.4,3,11.12,11.12,0,0,1,2.58,3.67,11.29,11.29,0,0,1,.9,4.52,11,11,0,0,1-3.48,8.16,11.81,11.81,0,0,1-8.4,3Zm8.61-11.13a8.22,8.22,0,0,0-8.55-8.58A8.53,8.53,0,0,0,68,186.23a9.17,9.17,0,0,0,0,12.38A8.5,8.5,0,0,0,74.25,201a8.13,8.13,0,0,0,8.58-8.55Z" transform="translate(-7.61)" fill="#58595b"/><path d="M93.06,181.6h3V193a20.37,20.37,0,0,0,.24,3.56,5.19,5.19,0,0,0,1.06,2.31,5.69,5.69,0,0,0,2.27,1.65,8.7,8.7,0,0,0,6.45,0,5.59,5.59,0,0,0,2.28-1.69,5.08,5.08,0,0,0,1-2.3,19.829,19.829,0,0,0,.26-3.53V181.6h3v12.62a17.92,17.92,0,0,1-.27,3.42,6.15,6.15,0,0,1-1.11,2.49,8.13,8.13,0,0,1-3.44,2.6,12.37,12.37,0,0,1-5,1,12.21,12.21,0,0,1-5-1,7.91,7.91,0,0,1-3.39-2.6,6.7,6.7,0,0,1-1.11-2.53,16.361,16.361,0,0,1-.3-3.38Z" transform="translate(-7.61)" fill="#58595b"/><path d="M121,203.23V181.6h9.63a30.67,30.67,0,0,1,3.75.17,5.88,5.88,0,0,1,2.31.82,5.3,5.3,0,0,1,2.43,4.87c0,2.39-.67,4-2,5s-3.37,1.29-6.39,1.29H123.9v9.51Zm2.94-12h6.48a10.87,10.87,0,0,0,4.26-.54c.92-.48,1.38-1.49,1.38-3s-.45-2.53-1.35-3a10.71,10.71,0,0,0-4.29-.57H123.9Z" transform="translate(-7.61)" fill="#58595b"/><line x2="133.83" transform="translate(0.2 173.34)" fill="none" stroke="#58595b" stroke-miterlimit="10" stroke-width="1.33"/><path d="M7.61,62.19H21.43q15.8,0,20.8,5.56t5,22.6V135.4q0,17-4.93,22.6t-20.87,5.56H7.61ZM20.73,72.62v80.51h2.68q6.48,0,8.53-2.18T34,142V83.74c0-4.51-.68-7.48-2-8.94s-4.21-2.18-8.53-2.18Z" transform="translate(-7.61)" fill="#58595b"/><path d="M62.18,62.19H75.29v90.66H93.9v10.71H62.18Z" transform="translate(-7.61)" fill="#58595b"/><path d="M139.73,82.35V90H126.62V83.05q0-6.76-1.13-9.51a4.28,4.28,0,0,0-4.37-2.75q-4.09,0-5.29,3.16t-1.2,11v55.46q0,8,1.13,11.13t5.08,3.09a4.56,4.56,0,0,0,4.51-2.73c.84-1.82,1.27-4.78,1.27-8.89V134h13.11v9.27q0,12.21-4.07,17.05t-15.18,4.84q-11.24,0-15.17-6.12t-3.93-21.05V87.53q0-14.93,4-21t15.44-6.06q10.85,0,14.87,4.87T139.73,82.35Z" transform="translate(-7.61)" fill="#58595b"/></svg>