<svg xmlns="http://www.w3.org/2000/svg" xmlns:xlink="http://www.w3.org/1999/xlink" width="184.232" height="173.373" viewBox="0 0 184.232 173.373"><defs><radialGradient id="a" cx="-0.392" cy="-1.454" r="0.55" gradientTransform="matrix(1.449, -0.378, 0.897, 1.401, -0.141, -1.7)" gradientUnits="objectBoundingBox"><stop offset="0" stop-color="#58595b"/><stop offset="0.33" stop-color="#585a5d"/><stop offset="0.49" stop-color="#595f65"/><stop offset="0.62" stop-color="#5b6772"/><stop offset="0.74" stop-color="#5d7385"/><stop offset="0.84" stop-color="#60829e"/><stop offset="0.93" stop-color="#6394bc"/><stop offset="1" stop-color="#67a6da"/></radialGradient></defs><path d="M367.439,19.266a1.162,1.162,0,1,0,1.259,1.06,1.133,1.133,0,0,0-.169-.508,1.162,1.162,0,0,0-1.089-.552Z" transform="translate(-192.687 -9.936)" fill="none"/><path d="M252.227,118.617c-.6,0-1.186-.068-1.777-.077v.131q.073,1.893.334,3.776a59.267,59.267,0,0,0,3.733,11.014h0a24.278,24.278,0,0,1,3.418-1.385,53.767,53.767,0,0,1-3.679-6.584,47.215,47.215,0,0,1-2.024-6.875Z" transform="translate(-132.883 -61.151)" fill="none"/><path d="M265.107,6.831q0-3.258-.15-6.831c-14.364,19.5-41.689,24.943-67.648,30.466-25.828,5.49-38.188,21.52-36.891,41.756,1.452,22.493,38.179,52.47-.968,56.644,11.28,1.937,20.44-2.392,21.031-13.285.7-13.135-15.594-30.641-15.492-44.09a9.4,9.4,0,0,1,1.709-6.831c6.652,36.421,37.085,45.615,12.1,101.615,30.186-47.169-.194-68.142-6.439-101.484-.639-3.418.9-6.72,1.937-7.088,1.9,12.926,14.04,34.611,19.641,45.649,6.023,11.793,11.885,36.358,4.2,70.02C218.006,110.135,182.824,86.66,179.512,58.3c-.794-6.831,14.088-2.237,20.818-1.109.412,2.348,1.147,5,1.709,7.165a29.683,29.683,0,0,0,4.706,8.327c-7.848,4.357-10.612,12.142-7.47,18.4,3.244,6.444,11.561,8.811,19.995,4.561s15.841-14.524,12.587-20.958c-2.716-5.413-12.065-6.41-19.99-4.091-.145-.315-.29-.615-.4-.905a39.965,39.965,0,0,1-3.389-11.111c-.053-.32-.1-.668-.14-1.026,24.4,0,52.02-3.926,57.031-45.659l5.2-3.418ZM211.034,70.872a24.877,24.877,0,0,0-3.418,1.385h0a58.919,58.919,0,0,1-3.733-11.014q-.261-1.883-.334-3.776v-.131c.591,0,1.181.077,1.777.077a48.018,48.018,0,0,0,2.058,6.831,53.763,53.763,0,0,0,3.65,6.652ZM260.7,11.619a1.162,1.162,0,1,1,1.254-1.055,1.133,1.133,0,0,1-.169.508,1.157,1.157,0,0,1-1.089.547Z" transform="translate(-85.939)" fill="url(#a)"/><g transform="translate(0.23 87.724)"><path d="M18.8,190.974a11.135,11.135,0,0,1-4.778,1.07,6.169,6.169,0,0,1-4.357-1.452,5.016,5.016,0,0,1-1.569-3.9,5.079,5.079,0,0,1,1.617-4,6.64,6.64,0,0,1,4.585-1.452,5.422,5.422,0,0,1,3.065.775,2.9,2.9,0,0,1,1.307,2.145H17.14a1.985,1.985,0,0,0-.968-1.249,4.067,4.067,0,0,0-2.043-.45,4.58,4.58,0,0,0-3.268,1.133,4.023,4.023,0,0,0-1.205,3.089,3.96,3.96,0,0,0,1.181,3.036,4.643,4.643,0,0,0,3.307,1.109,7.626,7.626,0,0,0,3.239-.62V187.59H14.163v-1.143H18.8Z" transform="translate(-8.084 -181.218)" fill="#58595b"/><path d="M38.16,192.07V181.6h4.662a15.435,15.435,0,0,1,1.907.087,2.75,2.75,0,0,1,1.157.421,2.508,2.508,0,0,1,1.075,2.29,2.462,2.462,0,0,1-2.295,2.561,1.53,1.53,0,0,1,1.307.523,4.493,4.493,0,0,1,.537,1.627l.286,1.4c.077.378.155.7.228.968a2.029,2.029,0,0,0,.252.61H45.683a2.334,2.334,0,0,1-.2-.552c-.048-.223-.107-.518-.165-.886l-.29-1.743a1.375,1.375,0,0,0-.712-1.133,4.914,4.914,0,0,0-1.937-.276H39.535v4.59Zm1.394-5.81h2.731a6.777,6.777,0,0,0,2.421-.276,1.477,1.477,0,0,0,.77-1.506,1.351,1.351,0,0,0-.784-1.385,6.991,6.991,0,0,0-2.421-.276H39.535Z" transform="translate(-23.599 -181.403)" fill="#58595b"/><path d="M68.106,192.024a5.664,5.664,0,0,1-4.052-1.452,5.49,5.49,0,0,1,0-7.916,6.4,6.4,0,0,1,8.119,0,5.384,5.384,0,0,1,1.249,1.777,5.466,5.466,0,0,1,.436,2.188,5.325,5.325,0,0,1-1.685,3.951A5.718,5.718,0,0,1,68.106,192.024Zm4.168-5.388a3.98,3.98,0,0,0-4.139-4.154,4.13,4.13,0,0,0-3.04,1.152,4.439,4.439,0,0,0,0,5.994,4.115,4.115,0,0,0,3.026,1.157,3.936,3.936,0,0,0,4.154-4.139Z" transform="translate(-36.088 -181.198)" fill="#58595b"/><g transform="translate(41.109 0.194)"><path d="M93.028,181.6H94.48v5.519a9.861,9.861,0,0,0,.116,1.724,2.513,2.513,0,0,0,.513,1.118,2.755,2.755,0,0,0,1.1.8,4.212,4.212,0,0,0,3.123,0,2.706,2.706,0,0,0,1.1-.818,2.46,2.46,0,0,0,.484-1.114,9.6,9.6,0,0,0,.126-1.709V181.6H102.5v6.11a8.676,8.676,0,0,1-.131,1.656,2.977,2.977,0,0,1-.537,1.205,3.936,3.936,0,0,1-1.665,1.259,5.989,5.989,0,0,1-2.421.484,5.912,5.912,0,0,1-2.421-.484,3.829,3.829,0,0,1-1.641-1.259,3.244,3.244,0,0,1-.537-1.225A7.921,7.921,0,0,1,93,187.71Z" transform="translate(-92.998 -181.6)" fill="#58595b"/></g><g transform="translate(54.666 0.193)"><path d="M121,192.07V181.6h4.662a14.851,14.851,0,0,1,1.815.082,2.847,2.847,0,0,1,1.118.4,2.566,2.566,0,0,1,1.176,2.358,2.8,2.8,0,0,1-.968,2.421,5.2,5.2,0,0,1-3.094.625H122.4v4.6Zm1.423-5.81h3.137a5.262,5.262,0,0,0,2.062-.261,1.926,1.926,0,0,0,.015-2.9,5.185,5.185,0,0,0-2.077-.276H122.4Z" transform="translate(-121 -181.596)" fill="#58595b"/></g></g><line x2="64.791" transform="translate(0.097 83.92)" fill="none" stroke="#58595b" stroke-miterlimit="10" stroke-width="1.33"/><g transform="translate(0 29.275)"><path d="M7.61,62.19H14.3q7.649,0,10.07,2.692t2.421,10.941v21.81q0,8.23-2.387,10.941t-10.1,2.692H7.61Zm6.352,5.05v38.978h1.3q3.137,0,4.13-1.055t1-4.333V72.623c0-2.183-.329-3.621-.968-4.328s-2.038-1.055-4.13-1.055Z" transform="translate(-7.61 -61.357)" fill="#58595b"/><path d="M62.18,62.19h6.347v43.891h9.01v5.185H62.18Z" transform="translate(-35.761 -61.357)" fill="#58595b"/><path d="M119.946,71.063v3.7H113.6V71.4a13.46,13.46,0,0,0-.547-4.6,2.072,2.072,0,0,0-2.116-1.331A2.436,2.436,0,0,0,108.376,67a16.814,16.814,0,0,0-.581,5.325v26.85a18.015,18.015,0,0,0,.547,5.388,2.3,2.3,0,0,0,2.459,1.5,2.208,2.208,0,0,0,2.183-1.322,11.013,11.013,0,0,0,.615-4.3V96.068h6.347v4.488q0,5.911-1.97,8.254t-7.349,2.343q-5.442,0-7.344-2.963T101.38,98V73.571q0-7.228,1.937-10.167t7.475-2.934q5.253,0,7.2,2.358T119.946,71.063Z" transform="translate(-55.983 -60.47)" fill="#58595b"/></g></svg>