<svg xmlns="http://www.w3.org/2000/svg" xmlns:xlink="http://www.w3.org/1999/xlink" width="441.647" height="415.615" viewBox="0 0 441.647 415.615"><defs><radialGradient id="a" cx="-0.392" cy="-1.454" r="0.55" gradientTransform="matrix(1.449, -0.378, 0.897, 1.401, -0.141, -1.7)" gradientUnits="objectBoundingBox"><stop offset="0" stop-color="#58595b"/><stop offset="0.33" stop-color="#585a5d"/><stop offset="0.49" stop-color="#595f65"/><stop offset="0.62" stop-color="#5b6772"/><stop offset="0.74" stop-color="#5d7385"/><stop offset="0.84" stop-color="#60829e"/><stop offset="0.93" stop-color="#6394bc"/><stop offset="1" stop-color="#67a6da"/></radialGradient></defs><path d="M368.922,19.271a2.785,2.785,0,1,0,3.018,2.542,2.715,2.715,0,0,0-.406-1.219,2.785,2.785,0,0,0-2.611-1.323Z" transform="translate(50.001 3.093)" fill="none"/><path d="M254.709,118.726c-1.427,0-2.843-.162-4.259-.186v.313q.174,4.538.8,9.053a142.071,142.071,0,0,0,8.948,26.4h0a58.2,58.2,0,0,1,8.194-3.319,128.9,128.9,0,0,1-8.82-15.784,113.189,113.189,0,0,1-4.851-16.48Z" transform="translate(31.385 19.035)" fill="none"/><path d="M412.735,16.376q0-7.811-.36-16.376c-34.434,46.737-99.937,59.793-162.168,73.035-61.917,13.161-91.546,51.588-88.436,100.1,3.482,53.921,91.523,125.784-2.321,135.788,27.042,4.642,49-5.733,50.416-31.846,1.683-31.487-37.382-73.453-37.139-105.694a22.527,22.527,0,0,1,4.1-16.376c15.946,87.31,88.9,109.35,29.014,243.594C278.2,285.526,205.374,235.249,190.4,155.32c-1.532-8.194,2.159-16.109,4.642-16.991,4.549,30.987,33.657,82.97,47.085,109.431,14.438,28.272,28.492,87.159,10.074,167.855,47.619-151.595-36.721-207.871-44.659-275.846-1.9-16.376,33.773-5.362,49.9-2.658.987,5.629,2.751,11.989,4.1,17.177a71.156,71.156,0,0,0,11.281,19.962c-18.813,10.445-25.44,29.107-17.908,44.1,7.776,15.447,27.715,21.123,47.932,10.933s37.974-34.817,30.175-50.242c-6.511-12.975-28.922-15.366-47.92-9.807-.348-.754-.7-1.474-.963-2.17a95.8,95.8,0,0,1-8.124-26.635c-.128-.766-.232-1.6-.337-2.46,58.493,0,124.7-9.412,136.716-109.454l12.476-8.194ZM283.11,169.9a59.638,59.638,0,0,0-8.194,3.319h0a141.244,141.244,0,0,1-8.948-26.4q-.627-4.515-.8-9.053v-.313c1.416,0,2.832.186,4.259.186a115.105,115.105,0,0,0,4.933,16.376,128.885,128.885,0,0,0,8.751,15.946ZM402.162,27.854a2.785,2.785,0,1,1,3.006-2.53,2.717,2.717,0,0,1-.406,1.219,2.774,2.774,0,0,1-2.611,1.311Z" transform="translate(16.772)" fill="url(#a)"/><g transform="translate(0.551 210.295)"><path d="M33.763,204.58a26.693,26.693,0,0,1-11.455,2.565q-6.685,0-10.445-3.482A12.024,12.024,0,0,1,8.1,194.32a12.175,12.175,0,0,1,3.876-9.586q3.888-3.482,10.991-3.482a13,13,0,0,1,7.346,1.857,6.964,6.964,0,0,1,3.134,5.141H29.794a4.758,4.758,0,0,0-2.321-2.994,9.749,9.749,0,0,0-4.9-1.079,10.979,10.979,0,0,0-7.834,2.716,9.645,9.645,0,0,0-2.89,7.4,9.494,9.494,0,0,0,2.832,7.277,11.13,11.13,0,0,0,7.927,2.658,18.28,18.28,0,0,0,7.764-1.486v-6.279H22.656v-2.739H33.763Z" transform="translate(-8.084 -181.192)" fill="#58595b"/><path d="M38.16,206.7V181.6H49.336a37,37,0,0,1,4.573.209,6.593,6.593,0,0,1,2.774,1.01,6.012,6.012,0,0,1,2.576,5.49c0,3.342-1.834,5.4-5.5,6.139a3.667,3.667,0,0,1,3.134,1.253,10.77,10.77,0,0,1,1.288,3.9l.685,3.354c.186.905.371,1.671.545,2.321a4.863,4.863,0,0,0,.6,1.462H56.2a5.594,5.594,0,0,1-.476-1.323c-.116-.534-.255-1.242-.395-2.124l-.7-4.178a3.3,3.3,0,0,0-1.706-2.716,11.78,11.78,0,0,0-4.642-.662H41.456v11ZM41.5,192.777h6.546a16.247,16.247,0,0,0,5.8-.662c1.23-.557,1.845-1.764,1.845-3.609a3.238,3.238,0,0,0-1.88-3.319,16.76,16.76,0,0,0-5.8-.661H41.456Z" transform="translate(-3.255 -181.135)" fill="#58595b"/><path d="M76.123,207.151a13.578,13.578,0,0,1-9.714-3.482,13.161,13.161,0,0,1,0-18.975,13.66,13.66,0,0,1,9.714-3.482,13.707,13.707,0,0,1,9.749,3.482,12.906,12.906,0,0,1,2.994,4.259,13.1,13.1,0,0,1,1.045,5.246,12.766,12.766,0,0,1-4.039,9.47A13.707,13.707,0,0,1,76.123,207.151Zm9.993-12.917a9.54,9.54,0,0,0-9.923-9.958,9.9,9.9,0,0,0-7.288,2.762,10.642,10.642,0,0,0,0,14.368,9.865,9.865,0,0,0,7.254,2.774,9.436,9.436,0,0,0,9.958-9.923Z" transform="translate(0.632 -181.198)" fill="#58595b"/><g transform="translate(98.549 0.466)"><path d="M93.07,181.6h3.482v13.231a23.64,23.64,0,0,0,.279,4.132,6.024,6.024,0,0,0,1.23,2.681,6.6,6.6,0,0,0,2.635,1.915,10.1,10.1,0,0,0,7.486,0,6.488,6.488,0,0,0,2.646-1.961,5.9,5.9,0,0,0,1.161-2.669,23.014,23.014,0,0,0,.3-4.1V181.6h3.482v14.647a20.8,20.8,0,0,1-.313,3.969,7.138,7.138,0,0,1-1.288,2.89,9.435,9.435,0,0,1-3.992,3.018,14.358,14.358,0,0,1-5.8,1.161,14.172,14.172,0,0,1-5.8-1.161,9.18,9.18,0,0,1-3.934-3.018,7.775,7.775,0,0,1-1.288-2.936A18.988,18.988,0,0,1,93,196.247Z" transform="translate(-92.998 -181.6)" fill="#58595b"/></g><g transform="translate(131.047 0.462)"><path d="M121,206.7V181.6h11.176a35.6,35.6,0,0,1,4.352.2,6.824,6.824,0,0,1,2.681.952,6.151,6.151,0,0,1,2.82,5.652c0,2.774-.778,4.642-2.321,5.8s-3.911,1.5-7.416,1.5h-7.927v11.037Zm3.412-13.927h7.521a12.614,12.614,0,0,0,4.944-.627c1.068-.557,1.6-1.729,1.6-3.482s-.522-2.936-1.567-3.482a12.43,12.43,0,0,0-4.979-.662h-7.567Z" transform="translate(-121 -181.596)" fill="#58595b"/></g></g><line x2="155.32" transform="translate(0.232 201.175)" fill="none" stroke="#58595b" stroke-miterlimit="10" stroke-width="1.33"/><g transform="translate(0 70.18)"><path d="M7.61,62.19H23.649q18.337,0,24.14,6.453t5.8,26.229v52.284q0,19.73-5.722,26.229t-24.221,6.453H7.61Zm15.227,12.1v93.438h3.11q7.521,0,9.9-2.53t2.391-10.387V87.2c0-5.234-.789-8.681-2.321-10.376s-4.886-2.53-9.9-2.53Z" transform="translate(-7.61 -60.194)" fill="#58595b"/><path d="M62.18,62.19H77.4V167.408h21.6v12.43H62.18Z" transform="translate(1.153 -60.194)" fill="#58595b"/><path d="M145.888,85.863v8.878H130.673V86.676q0-7.845-1.311-11.037a4.967,4.967,0,0,0-5.072-3.192q-4.747,0-6.139,3.667t-1.393,12.766v64.366q0,9.285,1.311,12.917t5.9,3.586a5.292,5.292,0,0,0,5.234-3.168c.975-2.112,1.474-5.548,1.474-10.318V145.807h15.215v10.759q0,14.171-4.724,19.788t-17.618,5.617q-13.045,0-17.606-7.1t-4.561-24.43V91.875q0-17.327,4.642-24.372t17.919-7.033q12.592,0,17.258,5.652T145.888,85.863Z" transform="translate(7.448 -60.47)" fill="#58595b"/></g></svg>