<svg xmlns="http://www.w3.org/2000/svg" xmlns:xlink="http://www.w3.org/1999/xlink" width="388.151" height="358.15" viewBox="0 0 388.151 358.15"><defs><radialGradient id="a" cx="0.202" cy="1.044" r="0.545" gradientTransform="matrix(1.45, -0.378, -0.897, -1.401, 0.24, 0.091)" gradientUnits="objectBoundingBox"><stop offset="0" stop-color="#58595b"/><stop offset="0.33" stop-color="#585a5d"/><stop offset="0.49" stop-color="#595f65"/><stop offset="0.62" stop-color="#5b6772"/><stop offset="0.74" stop-color="#5d7385"/><stop offset="0.84" stop-color="#60829e"/><stop offset="0.93" stop-color="#6394bc"/><stop offset="1" stop-color="#67a6da"/></radialGradient></defs><g transform="translate(573.4 -92.47)"><path d="M267.52,51.4a2.4,2.4,0,1,0,2.248,1.132A2.4,2.4,0,0,0,267.52,51.4Z" transform="translate(-472.346 60.344)" fill="none"/><path d="M203.269,107.839c-1.235,0-2.452-.141-3.669-.159v.265a77.081,77.081,0,0,0,.688,7.8A121.7,121.7,0,0,0,208,138.493h0a50.619,50.619,0,0,1,7.055-2.857,111.117,111.117,0,0,1-7.6-13.6,98.224,98.224,0,0,1-4.18-14.2Z" transform="translate(-522.546 103.333)" fill="none"/><path d="M366.233,54.58q0-6.738-.317-14.11C336.249,80.737,279.808,91.99,226.19,103.4c-53.354,11.341-78.875,44.447-76.195,86.248,2.963,46.458,78.858,108.383-1.975,117.043,23.3,4.021,42.224-4.939,43.441-27.444,1.446-27.127-32.206-63.284-31.959-91.063a19.4,19.4,0,0,1,3.528-14.11c13.74,75.224,76.6,94.22,25.045,209.888,62.349-97.43-.406-140.748-13.3-209.623-1.323-7.055,1.852-13.881,4-14.639,3.916,26.7,28.943,71.485,40.567,94.291,12.435,24.358,24.552,75.1,8.678,144.629,40.919-130.66-31.748-179.2-38.591-237.72-1.64-14.11,29.1-4.621,43.036-2.293.847,4.85,2.363,10.336,3.528,14.8a61.15,61.15,0,0,0,9.718,17.2c-16.209,8.96-21.924,25.081-15.433,37.991,6.7,13.316,23.881,18.2,41.307,9.418s32.718-29.984,26.016-43.283c-5.609-11.182-24.922-13.246-41.29-8.448-.3-.653-.6-1.27-.829-1.87a82.755,82.755,0,0,1-7.055-22.929c-.106-.653-.194-1.376-.282-2.117,50.391,0,107.448-8.113,117.8-94.308L376.692,58ZM254.516,186.862a50.618,50.618,0,0,0-7.055,2.857h0a121.7,121.7,0,0,1-7.708-22.753,77.056,77.056,0,0,1-.688-7.8v-.265c1.217,0,2.434.159,3.669.159a98.228,98.228,0,0,0,4.251,14.11,111.125,111.125,0,0,0,7.531,13.74Zm102.6-122.388a2.4,2.4,0,1,1,2.248-1.132A2.4,2.4,0,0,1,357.114,64.475Z" transform="translate(-561.941 52)" fill="url(#a)"/><text transform="translate(-566.98 295.7)" fill="#58595b" font-size="30" font-family="SegoeUI, Segoe UI" letter-spacing="0.07em"><tspan x="0" y="0">GRO</tspan><tspan y="0" letter-spacing="0.06em">U</tspan><tspan y="0" letter-spacing="0.08em">P</tspan></text><line x2="133.834" transform="translate(-565.587 265.813)" fill="#363539" stroke="#58595b" stroke-miterlimit="10" stroke-width="1.33"/><text transform="translate(-573.4 256.034)" fill="#58595b" font-size="141" font-family="SegoeUI, Segoe UI"><tspan x="0" y="0">DLC</tspan></text></g></svg>