<svg xmlns="http://www.w3.org/2000/svg" width="250" height="249.981" viewBox="0 0 250 249.981"><g transform="translate(0 0)"><g transform="translate(0 0)"><rect width="250" height="15.626" fill="#edeeef"/><rect width="250" height="15.626" transform="translate(0 234.355)" fill="#edeeef"/></g></g><g transform="translate(42.774 58.814)"><path d="M45.691,52.056H62.766q19.513,0,25.7,6.876t6.189,27.926v55.684q0,21.061-6.1,27.932t-25.793,6.873H45.691ZM61.9,64.953v99.5h3.31q8.012,0,10.544-2.695t2.526-11.046V78.694q0-8.349-2.526-11.044t-10.544-2.7Z" transform="translate(-45.691 -49.965)" fill="#edeeef"/><path d="M70.915,52.056H87.121V164.1h23v13.241H70.915Z" transform="translate(-3.481 -49.965)" fill="#edeeef"/><path d="M136.433,78.283v9.41h-16.2V79.155q0-8.365-1.4-11.763a5.3,5.3,0,0,0-5.4-3.4q-5.053,0-6.534,3.917t-1.481,13.653v68.543q0,9.913,1.4,13.744t6.274,3.826a5.633,5.633,0,0,0,5.574-3.374q1.568-3.373,1.569-10.993V142.06h16.2v11.45q0,15.094-5.034,21.077T112.65,180.57Q98.759,180.57,93.9,173t-4.86-26.017v-62.3q0-18.442,4.967-25.927t19.083-7.483q13.41,0,18.382,6.012t4.964,21" transform="translate(26.842 -51.274)" fill="#edeeef"/></g></svg>