<svg xmlns="http://www.w3.org/2000/svg" xmlns:xlink="http://www.w3.org/1999/xlink" width="250" height="249.963" viewBox="0 0 250 249.963"><defs><clipPath id="a"><rect width="250" height="249.963" transform="translate(0 0)" fill="none"/></clipPath></defs><g clip-path="url(#a)"><path d="M17.036,23.4H34.107q19.515,0,25.7,6.875T66,58.2v55.679q0,21.059-6.1,27.929t-25.793,6.873H17.036Zm16.2,12.9v99.489H36.55q8.011,0,10.543-2.695t2.526-11.045V50.035q0-8.348-2.526-11.043T36.55,36.3Z" transform="translate(28.504 39.152)" fill="#464749"/><path d="M42.26,23.4h16.2V135.437h23v13.24H42.26Z" transform="translate(70.707 39.153)" fill="#464749"/><path d="M107.772,49.626v9.409h-16.2V50.5q0-8.364-1.4-11.762a5.3,5.3,0,0,0-5.4-3.4q-5.056,0-6.536,3.916T76.758,52.906v68.537q0,9.912,1.4,13.743t6.271,3.825A5.634,5.634,0,0,0,90,135.637q1.564-3.376,1.566-10.992V113.4h16.2v11.449q0,15.093-5.034,21.072T83.992,151.9q-13.894,0-18.755-7.568T60.38,118.32V56.025q0-18.441,4.967-25.924t19.078-7.482q13.412,0,18.383,6.009t4.964,21" transform="translate(101.024 37.845)" fill="#464749"/><rect width="249.976" height="15.625" transform="translate(0 0)" fill="#464749"/><rect width="249.976" height="15.624" transform="translate(0 234.333)" fill="#464749"/></g></svg>