<svg xmlns="http://www.w3.org/2000/svg" width="205.239" height="205.245" viewBox="0 0 405.239 405.245"><g transform="translate(-80.845 -80.842)"><path d="M201.259,141.111a163.383,163.383,0,0,1,39.664-16.461l13.506-23.391-23.385-13.5a201.4,201.4,0,0,0-48.752,20.266l25.969,6.959Z" fill="#67b983"/><path d="M240.923,124.65a164.569,164.569,0,0,1,42.543-5.59l19.109-19.109L283.466,80.842a202.14,202.14,0,0,0-52.422,6.916l23.385,13.5Z" fill="#69ba7d"/><path d="M283.466,119.061h0a164.608,164.608,0,0,1,42.563,5.594l23.391-13.5-13.5-23.385a202.094,202.094,0,0,0-52.453-6.924l19.109,19.109Z" fill="#419bd6"/><path d="M141.1,201.287a165.1,165.1,0,0,1,26.119-34.076V140.188H140.331a203.978,203.978,0,0,0-32.206,41.93l25.97-6.959Z" fill="#63b68d"/><path d="M167.216,167.211a165.088,165.088,0,0,1,34.043-26.1l7-26.129-25.969-6.959a203.933,203.933,0,0,0-41.961,32.164h26.885Z" fill="#65b888"/><path d="M425.818,201.256a163.372,163.372,0,0,1,16.463,39.666l23.389,13.5,13.5-23.383A201.256,201.256,0,0,0,458.9,182.291l-6.957,25.965Z" fill="#47a1cb"/><path d="M124.659,240.9A163.416,163.416,0,0,1,141.1,201.287l-7-26.129-25.97,6.959A201.353,201.353,0,0,0,87.77,231.01l23.385-13.5Z" fill="#62b592"/><path d="M447.869,283.465a164.6,164.6,0,0,1-5.594,42.563l13.5,23.391,23.381-13.5a202.092,202.092,0,0,0,6.924-52.452l-19.105,19.1Z" fill="#4ba4c5"/><path d="M326.029,124.654a163.426,163.426,0,0,1,39.613,16.439l26.129-7-6.959-25.969a201.284,201.284,0,0,0-48.893-20.357l13.5,23.385Z" fill="#439cd3"/><path d="M399.718,167.215a165.113,165.113,0,0,1,26.1,34.041l26.129,7,6.957-25.965a203.928,203.928,0,0,0-32.164-41.963v26.885Z" fill="#469fce"/><path d="M365.642,141.094a165.054,165.054,0,0,1,34.076,26.121l27.021,0V140.328a203.819,203.819,0,0,0-41.928-32.205l6.959,25.969Z" fill="#449ed1"/><path d="M442.281,240.922a164.545,164.545,0,0,1,5.588,42.543l19.109,19.108,19.105-19.1v0a202.128,202.128,0,0,0-6.914-52.422l-13.5,23.383Z" fill="#49a2c8"/><path d="M283.464,447.868a164.545,164.545,0,0,1-42.563-5.6l-23.389,13.506,13.5,23.385a202.117,202.117,0,0,0,52.453,6.924h0l-19.109-19.109Z" fill="#55acb0"/><path d="M399.716,399.718a165.071,165.071,0,0,1-34.043,26.1l-7,26.129,25.971,6.957A203.851,203.851,0,0,0,426.6,426.74H399.716Z" fill="#50a8bb"/><path d="M326.007,442.28a164.529,164.529,0,0,1-42.541,5.588h0l-19.105,19.109,19.109,19.109a202.152,202.152,0,0,0,52.422-6.916l-23.387-13.5Z" fill="#54abb3"/><path d="M365.673,425.817a163.292,163.292,0,0,1-39.666,16.463l-13.5,23.389,23.387,13.5A201.262,201.262,0,0,0,384.642,458.9l-25.971-6.957Z" fill="#52a9b7"/><path d="M425.835,365.642a165.046,165.046,0,0,1-26.119,34.076v27.021H426.6a203.809,203.809,0,0,0,32.2-41.928l-25.967,6.959Z" fill="#4ea7be"/><path d="M455.779,349.419l-13.5-23.391a163.313,163.313,0,0,1-16.439,39.613l7,26.129,25.967-6.959A201.376,201.376,0,0,0,479.16,335.92Z" fill="#4da5c2"/><path d="M201.291,425.835a165.094,165.094,0,0,1-34.078-26.121l-27.02,0V426.6a203.809,203.809,0,0,0,41.928,32.2l-6.959-25.969Z" fill="#59aea8"/><path d="M124.653,326.007a164.5,164.5,0,0,1-5.59-42.542h0L99.955,264.354,80.846,283.465a202.161,202.161,0,0,0,6.915,52.427l13.5-23.389Z" fill="#5eb29b"/><path d="M141.115,365.673a163.207,163.207,0,0,1-16.461-39.666l-23.39-13.5-13.5,23.389a201.407,201.407,0,0,0,20.268,48.752l6.959-25.973Z" fill="#5cb19f"/><path d="M119.063,283.465a164.513,164.513,0,0,1,5.6-42.564l-13.5-23.391-23.385,13.5a202.1,202.1,0,0,0-6.924,52.455l19.109-19.111Z" fill="#60b496"/><path d="M167.212,399.714a165.049,165.049,0,0,1-26.1-34.041l-26.127-7-6.959,25.973A203.943,203.943,0,0,0,140.193,426.6V399.716Z" fill="#5bb0a3"/><path d="M240.9,442.272a163.291,163.291,0,0,1-39.611-16.438l-26.129,7,6.959,25.969a201.349,201.349,0,0,0,48.893,20.357l-13.5-23.385Z" fill="#57adac"/><path d="M277.148,397.616H253.13l10.518-10.776c5.869-6.021,12.605-14,12.605-22.3,0-10.534-9.615-17.891-23.379-17.891-9.3,0-18.52,3.315-28.189,10.135a.5.5,0,0,0-.156.639l7.254,13.951a.5.5,0,0,0,.766.154c6.223-5.187,12.547-8.161,17.35-8.161,2.359,0,5.174.688,5.174,3.963,0,2.229-2,5.683-5.35,9.235l-22.879,23.994a.5.5,0,0,0-.139.345v12.277a.5.5,0,0,0,.5.5h49.943a.5.5,0,0,0,.5-.5V398.117A.5.5,0,0,0,277.148,397.616Z" fill="#419bd6"/><path d="M344.666,385.153h-8.057V372.54a.5.5,0,0,0-.5-.5H318.16a.5.5,0,0,0-.5.5v12.613H307.9l18.152-36.945a.5.5,0,0,0-.449-.72H307.093a.5.5,0,0,0-.447.274l-19.717,39.061a.5.5,0,0,0-.053.226v12.834a.5.5,0,0,0,.5.5h30.283v12.8a.5.5,0,0,0,.5.5h17.949a.5.5,0,0,0,.5-.5v-12.8h8.057a.5.5,0,0,0,.5-.5V385.654A.5.5,0,0,0,344.666,385.153Z" fill="#419bd6"/><path d="M270.105,217.79a2.515,2.515,0,0,1,2.8,2.8V327.05a2.514,2.514,0,0,1-2.8,2.8H257.078a2.514,2.514,0,0,1-2.8-2.8V264.016h-.98l-13.869,63.313a2.908,2.908,0,0,1-3.08,2.521h-6.865a2.909,2.909,0,0,1-3.08-2.521l-13.869-63.313h-.98V327.05a2.514,2.514,0,0,1-2.8,2.8H195.866a2.514,2.514,0,0,1-2.8-2.8V220.592a2.515,2.515,0,0,1,2.8-2.8h18.49a2.913,2.913,0,0,1,3.082,2.521l15.547,69.758,15.549-69.758a2.91,2.91,0,0,1,3.082-2.521h18.489Z" fill="#419bd6"/><path d="M305.126,217.79a2.061,2.061,0,0,1,2.24,2.241V327.61a2.061,2.061,0,0,1-2.24,2.24H290.558a2,2,0,0,1-2.24-2.24V220.031a2,2,0,0,1,2.24-2.241h14.568Z" fill="#3c3c3b"/><path d="M355.554,217.79c13.166,0,20.17,7,20.17,20.171V252.81a2,2,0,0,1-2.24,2.241H358.916a2.063,2.063,0,0,1-2.242-2.241V241.883c0-3.642-1.82-5.6-5.6-5.6h-6.725c-3.5,0-5.6,1.961-5.6,5.6v19.331l33.34,10.926c2.381.98,3.641,2.521,3.641,5.183v32.358c0,13.166-7,20.17-20.17,20.17H339.865c-13.027,0-20.17-7-20.17-20.17V294.972a2,2,0,0,1,2.24-2.241H336.5c1.541,0,2.24.7,2.24,2.241v10.787c0,3.781,2.1,5.6,5.6,5.6h6.725c3.641,0,5.6-1.82,5.6-5.6V287.128l-33.2-10.927a4.994,4.994,0,0,1-3.781-5.183V237.96c0-13.167,7.143-20.171,20.17-20.171h15.688Z" fill="#3c3c3b"/></g></svg>