<svg xmlns="http://www.w3.org/2000/svg" width="200" height="120.41" viewBox="0 0 260 156.534"><g transform="translate(-12191 -2614)"><path d="M95.886,6.169c0-1.928-.077-4.01-.154-6.169C82.777,17.581,58.1,22.439,34.66,27.451S.192,46.883,1.348,65.158c1.311,20.28,34.468,47.423-.848,51.2,10.179,1.774,18.429-2.159,18.969-12.029C20.163,92.456,5.435,76.648,5.512,64.542a8.409,8.409,0,0,1,1.542-6.169C13.069,91.3,40.52,99.55,18,150.134c27.22-42.565-.154-61.534-5.783-91.607-.617-3.084.771-6.092,1.774-6.4C15.691,63.77,26.64,83.357,31.73,93.3c5.4,10.641,10.718,32.849,3.778,63.231C53.4,99.4,21.628,78.19,18.621,52.589c-.694-6.169,12.723-2,18.815-1,.386,2.082,1,4.55,1.542,6.477A27.39,27.39,0,0,0,43.3,65.621C36.2,69.554,33.735,76.571,36.511,82.2c2.93,5.86,10.41,7.942,18.044,4.087S68.82,73.178,65.89,67.395c-2.468-4.858-10.873-5.783-18.044-3.7-.154-.308-.231-.54-.386-.848a35.157,35.157,0,0,1-3.084-10.024c-.077-.308-.077-.617-.154-.925,22.054,0,46.96-3.547,51.51-41.254l4.7-3.084ZM47.075,64a21.441,21.441,0,0,0-3.084,1.234h0A56.035,56.035,0,0,1,40.6,55.288c-.154-1.157-.231-2.236-.308-3.393v-.154c.54,0,1.08.077,1.619.077a43.593,43.593,0,0,0,1.851,6.169A56.806,56.806,0,0,0,47.075,64M91.953,10.487a1.046,1.046,0,0,1-.925-1.157.993.993,0,0,1,.925-.925,1.047,1.047,0,1,1,.231,2.082h-.231" transform="translate(12190.5 2614)" fill="#5eafde"/><g transform="translate(12300.498 2646.386)"><path d="M81.593,85.44c.656-2.891,1.322-5.792,1.968-8.692q4.1-18.851,8.344-37.7c.728-3.29,1.466-6.581,2.183-9.861.42-1.937,1.2-2.655,3.157-2.665h14.228c2.214,0,2.839.728,2.839,3.137v85.509c0,.595-.072,1.189-.123,1.784a1.9,1.9,0,0,1-1.927,1.845h-.123q-5.443.062-10.886,0a1.907,1.907,0,0,1-2.112-1.722,1.3,1.3,0,0,1,0-.205c0-.554-.1-1.1-.1-1.65V65.964a14.569,14.569,0,0,0-.164-1.466h-.441a10.531,10.531,0,0,0-.39,1.22Q92.5,90.934,86.934,116.1c-.461,2.05-1.21,2.727-3.342,2.737H79.277c-2.05,0-2.87-.707-3.321-2.8q-1.661-7.657-3.342-15.376Q68.77,83.1,64.916,65.544a5.259,5.259,0,0,0-.533-1.076l-.461.174v50.822c0,2.88-.472,3.362-3.342,3.362H51.355c-1.968,0-2.614-.646-2.645-2.624V29.185c.062-1.968.646-2.573,2.655-2.624H65.459c2.235,0,2.973.564,3.465,2.768l9.594,43.185Q79.933,79,81.4,85.491Z" transform="translate(-48.71 -26.485)" fill="#5eafdd"/><path d="M166.288,62.305l26.754,8.785c2.573.851,3.618,2.2,3.608,4.92,0,9.471.092,18.953-.185,28.425-.154,5.443-2.327,10.127-7.637,12.506a18.184,18.184,0,0,1-6.632,1.671c-5.751.226-11.522.205-17.282,0a14.545,14.545,0,0,1-9.5-3.6,13.049,13.049,0,0,1-4.233-7.268,31.775,31.775,0,0,1-.7-5.833c-.1-3.752,0-7.514,0-11.276,0-2.05.492-2.47,2.5-2.481h10.9c1.8,0,2.276.461,2.306,2.265,0,3.075,0,6.15.113,9.225a3.475,3.475,0,0,0,3.208,3.731h.359a47.088,47.088,0,0,0,6.909.072c2.88-.184,4.1-1.558,4.1-4.469.061-4.1,0-8.118,0-12.167,0-1.1.277-2.46-.256-3.219s-1.9-.748-2.891-1.087L154.6,74.924c-3.4-1.117-4.151-2.163-4.151-5.781V43.783a19.917,19.917,0,0,1,2.265-10.25,13,13,0,0,1,9.482-6.519,42.549,42.549,0,0,1,6.755-.5c4.613,0,9.225-.123,13.828.185,5.279.349,9.594,2.593,12.075,7.565a20.86,20.86,0,0,1,1.784,9.225c.051,3.752,0,7.514,0,11.276,0,1.9-.523,2.4-2.46,2.409H183.293c-1.9,0-2.4-.543-2.409-2.47V46.663c0-3.393-1.281-4.756-4.664-4.889-2.05-.072-4.1,0-6.15.082a3.69,3.69,0,0,0-3.813,3.547,1.251,1.251,0,0,0,0,.277C166.226,51.2,166.288,56.739,166.288,62.305Z" transform="translate(-46.162 -26.486)" fill="#182125"/><path d="M123.94,72.615v-43.3c0-2.3.461-2.747,2.768-2.747h10.384c2.132,0,2.6.482,2.6,2.645v86.893c0,2.306-.451,2.747-2.778,2.747h-10.5c-2.05,0-2.47-.492-2.481-2.522Z" transform="translate(-46.826 -26.484)" fill="#182125"/></g></g></svg>