<svg xmlns="http://www.w3.org/2000/svg" width="174.352" height="227.279" viewBox="0 0 174.352 227.279"><g transform="translate(-12988 -3837.538)"><path d="M-115.83-31.768h3.529a6.623,6.623,0,0,1,4.008.921q1.171.921,1.171,3.356v4.935a4.169,4.169,0,0,1-1.154,3.323,5.757,5.757,0,0,1-3.76.987h-.858V-8.053h-2.936Zm2.936,2.375v8.774h.528a2.043,2.043,0,0,0,1.732-.575,4.208,4.208,0,0,0,.412-2.251V-26.6a4.123,4.123,0,0,0-.412-2.218,2.043,2.043,0,0,0-1.732-.575Zm8.279-2.375h4.123a6.558,6.558,0,0,1,3.843.855,3.646,3.646,0,0,1,1.138,3.092v3.815a3.987,3.987,0,0,1-.742,2.68,3.919,3.919,0,0,1-2.589,1.036,3.29,3.29,0,0,1,2.688.924,4.878,4.878,0,0,1,.742,3.034v8.279h-3.133v-8.312a3.747,3.747,0,0,0-.429-2.177q-.429-.528-2.012-.528h-.693V-8.053h-2.936Zm2.936,2.375v7.949h.627a2.565,2.565,0,0,0,1.93-.542,3.415,3.415,0,0,0,.478-2.151V-26.7a3.431,3.431,0,0,0-.478-2.118,2.468,2.468,0,0,0-1.93-.575Zm16,2.963A7.056,7.056,0,0,0-86.013-29a1.294,1.294,0,0,0-1.319-.757,1.293,1.293,0,0,0-1.336.741,7.383,7.383,0,0,0-.313,2.585v12.974a7.731,7.731,0,0,0,.3,2.618,1.3,1.3,0,0,0,1.352.708,1.3,1.3,0,0,0,1.319-.724,7.023,7.023,0,0,0,.33-2.6Zm3.1.591v11.793q0,3.524-.957,4.875Q-84.594-7.69-87.4-7.69q-2.7,0-3.694-1.449t-.99-4.908V-25.84q0-3.524.99-4.924t3.826-1.4q2.7,0,3.694,1.433T-82.582-25.84Zm3.5-5.928h7.091v2.507h-4.024v7.718h3.793v2.507h-3.793V-8.053h-3.067Zm9.631,0h3.133V-8.053h-3.133Zm6.7,0h3.067V-10.56h4.354v2.507h-7.421Zm14.15,0h7.883v2.837L-46-10.461h5.409v2.408h-8.345l0-3.066,5.279-18.239-4.953,0Zm12.633,0h4.156l3.6,23.715h-3.1l-.781-6.033-3.937,0-.914,6.032-2.874,0Zm1.954,2.574-1.666,12.7h3.248L-33.9-29.2Zm7.908-2.574h3.232q3.694,0,4.865,1.3t1.171,5.286v10.54q0,3.985-1.154,5.286t-4.882,1.3h-3.232Zm3.067,2.441v18.834h.627a2.8,2.8,0,0,0,2-.51,3.2,3.2,0,0,0,.478-2.091V-26.726a3.2,3.2,0,0,0-.478-2.091,2.8,2.8,0,0,0-2-.51Zm12.072-2.441h4.156l3.6,23.715h-3.1l-.781-6.033-3.937,0-.914,6.032-2.874,0Zm1.954,2.574-1.666,12.7h3.248L-8.9-29.2ZM-2.5-31.768H.532L2.718-11.743H3L5.066-31.767l2.7,0L4.726-8.053H.8Zm14.843,0H16.5L20.1-8.053h-3.1l-.781-6.033-3.937,0-.914,6.032-2.874,0ZM14.3-29.194l-1.666,12.7h3.248l-1.46-12.7Zm6.49-2.574h8.84v2.507h-2.87V-8.053h-3.1V-29.261h-2.87Zm10.984,0h7.091v2.507H34.839v7.553h3.826V-19.2H34.839v8.642h4.255v2.507H31.772Zm10.192,0h3.067V-10.56h4.354v2.507H41.964Zm9.235,0h7.091v2.507H54.267v7.553h3.826V-19.2H54.267v8.642h4.255v2.507H51.2Z" transform="translate(13103.83 4072.506)" fill="#464749"/><g transform="translate(12988 3837.538)"><rect width="174.335" height="10.897" fill="#464749"/><rect width="174.335" height="10.897" transform="translate(0 163.425)" fill="#464749"/><rect width="174.352" height="174.326" fill="none"/><path d="M13.669,14.042h6.49c10.36,0,20.969-3.495,20.969-20.345V-21.655C41.128-38.38,30.519-42,20.16-42H3.06V45.37H13.669Zm5.741-46.805c7.988,0,11.108,3,11.108,10.859V-5.929c0,7.863-3.12,10.734-11.108,10.734H13.669V-32.764Zm29.581,0H71.583L48.368,38.38v6.99H83.191V36.134H59.975L83.191-34.886V-42h-34.2Z" transform="translate(43.667 86.962)" fill="#464749"/></g></g></svg>