<svg xmlns="http://www.w3.org/2000/svg" width="205.239" height="205.245" viewBox="0 0 405.239 405.245"><g transform="translate(-80.845 -80.842)"><path d="M201.259,141.111a163.407,163.407,0,0,1,39.665-16.461l13.506-23.391-23.385-13.5a201.385,201.385,0,0,0-48.752,20.266l25.968,6.959Z" fill="#67b983"/><path d="M240.924,124.65a164.563,164.563,0,0,1,42.543-5.59l19.108-19.109L283.467,80.842a202.134,202.134,0,0,0-52.422,6.916l23.385,13.5Z" fill="#69ba7d"/><path d="M283.467,119.061h0a164.619,164.619,0,0,1,42.563,5.594l23.391-13.5-13.5-23.385a202.092,202.092,0,0,0-52.452-6.924l19.108,19.109Z" fill="#419bd6"/><path d="M141.1,201.287a165.1,165.1,0,0,1,26.12-34.076V140.188H140.331a203.939,203.939,0,0,0-32.205,41.93l25.97-6.959Z" fill="#63b68d"/><path d="M167.218,167.211a165.076,165.076,0,0,1,34.041-26.1l7-26.129-25.968-6.959a203.939,203.939,0,0,0-41.962,32.164h26.887v27.024Z" fill="#65b888"/><path d="M425.817,201.256a163.332,163.332,0,0,1,16.463,39.666l23.39,13.5,13.5-23.383A201.259,201.259,0,0,0,458.9,182.291l-6.957,25.965Z" fill="#47a1cb"/><path d="M124.659,240.9A163.416,163.416,0,0,1,141.1,201.287l-7-26.129-25.97,6.959A201.311,201.311,0,0,0,87.77,231.01l23.384-13.5Z" fill="#62b592"/><path d="M447.869,283.465a164.6,164.6,0,0,1-5.594,42.563l13.5,23.391,23.38-13.5a202.049,202.049,0,0,0,6.925-52.452l-19.106,19.1Z" fill="#4ba4c5"/><path d="M326.029,124.654a163.418,163.418,0,0,1,39.612,16.439l26.129-7-6.958-25.969a201.291,201.291,0,0,0-48.894-20.357l13.5,23.385Z" fill="#439cd3"/><path d="M399.719,167.215a165.108,165.108,0,0,1,26.1,34.041l26.129,7,6.957-25.965a203.959,203.959,0,0,0-32.163-41.963v26.885Z" fill="#469fce"/><path d="M365.642,141.094a165.087,165.087,0,0,1,34.077,26.121l27.021,0V140.328a203.846,203.846,0,0,0-41.928-32.205l6.958,25.969Z" fill="#449ed1"/><path d="M442.28,240.922a164.545,164.545,0,0,1,5.589,42.543l19.108,19.108,19.106-19.1v0a202.17,202.17,0,0,0-6.914-52.422l-13.5,23.383Z" fill="#49a2c8"/><path d="M283.465,447.868a164.534,164.534,0,0,1-42.563-5.6l-23.389,13.506,13.5,23.385a202.092,202.092,0,0,0,52.452,6.924h0l-19.109-19.109Z" fill="#55acb0"/><path d="M399.716,399.718a165.071,165.071,0,0,1-34.043,26.1l-7,26.129,25.97,6.957A203.857,203.857,0,0,0,426.6,426.74H399.716Z" fill="#50a8bb"/><path d="M326.008,442.28a164.535,164.535,0,0,1-42.541,5.588h0l-19.106,19.109,19.109,19.109a202.14,202.14,0,0,0,52.422-6.916l-23.386-13.5Z" fill="#54abb3"/><path d="M365.673,425.817a163.285,163.285,0,0,1-39.665,16.463l-13.5,23.389,23.386,13.5A201.261,201.261,0,0,0,384.642,458.9l-25.97-6.957Z" fill="#52a9b7"/><path d="M425.835,365.642a165.011,165.011,0,0,1-26.119,34.076v27.021H426.6a203.844,203.844,0,0,0,32.2-41.928l-25.968,6.959Z" fill="#4ea7be"/><path d="M455.779,349.419l-13.5-23.391a163.356,163.356,0,0,1-16.44,39.613l7,26.129,25.968-6.959a201.334,201.334,0,0,0,20.354-48.891Z" fill="#4da5c2"/><path d="M201.291,425.835a165.035,165.035,0,0,1-34.077-26.121l-27.021,0V426.6a203.837,203.837,0,0,0,41.928,32.2l-6.959-25.969Z" fill="#59aea8"/><path d="M124.653,326.007a164.538,164.538,0,0,1-5.59-42.542h0L99.955,264.354,80.846,283.465a202.161,202.161,0,0,0,6.915,52.427l13.5-23.389Z" fill="#5eb29b"/><path d="M141.115,365.673a163.329,163.329,0,0,1-16.462-39.666l-23.39-13.5-13.5,23.389a201.447,201.447,0,0,0,20.268,48.752l6.959-25.973Z" fill="#5cb19f"/><path d="M119.063,283.465a164.513,164.513,0,0,1,5.6-42.564l-13.5-23.391L87.77,231.01a202.055,202.055,0,0,0-6.925,52.455l19.109-19.111Z" fill="#60b496"/><path d="M167.214,399.714a165.054,165.054,0,0,1-26.1-34.041l-26.128-7-6.959,25.973A203.978,203.978,0,0,0,140.193,426.6V399.716Z" fill="#5bb0a3"/><path d="M240.9,442.272a163.258,163.258,0,0,1-39.611-16.438l-26.129,7,6.959,25.969a201.323,201.323,0,0,0,48.894,20.357l-13.5-23.385Z" fill="#57adac"/><path d="M277.147,397.616H253.13l10.519-10.776c5.868-6.021,12.6-14,12.6-22.3,0-10.534-9.613-17.891-23.379-17.891-9.3,0-18.519,3.315-28.188,10.135a.5.5,0,0,0-.155.639l7.254,13.951a.5.5,0,0,0,.764.154c6.224-5.187,12.548-8.161,17.351-8.161,2.359,0,5.173.688,5.173,3.963,0,2.229-2,5.683-5.35,9.235l-22.879,23.994a.5.5,0,0,0-.138.345v12.277a.5.5,0,0,0,.5.5h49.942a.5.5,0,0,0,.5-.5V398.117A.5.5,0,0,0,277.147,397.616Z" fill="#419bd6"/><path d="M344.665,385.153h-8.056V372.54a.5.5,0,0,0-.5-.5H318.16a.5.5,0,0,0-.5.5v12.613h-9.765l18.153-36.945a.5.5,0,0,0-.449-.72H307.092a.5.5,0,0,0-.446.274l-19.717,39.061a.5.5,0,0,0-.054.226v12.834a.5.5,0,0,0,.5.5h30.284v12.8a.5.5,0,0,0,.5.5h17.949a.5.5,0,0,0,.5-.5v-12.8h8.056a.5.5,0,0,0,.5-.5V385.654A.5.5,0,0,0,344.665,385.153Z" fill="#419bd6"/><path d="M199.155,217.79a2.81,2.81,0,0,1,2.8,2.8v89.089c0,13.166-7,20.17-20.171,20.17H166.1c-13.167,0-20.171-7-20.171-20.17V220.592a2.81,2.81,0,0,1,2.8-2.8h13.447a2.81,2.81,0,0,1,2.8,2.8v85.167c0,3.781,1.961,5.6,5.6,5.6h7.283c3.643,0,5.6-1.82,5.6-5.6V220.592a2.81,2.81,0,0,1,2.8-2.8h12.885Z" fill="#3c3c3b"/><path d="M274.938,272.14c0,9.385-3.5,15.549-10.225,18.49l9.665,36.7c.42,1.682-.421,2.521-1.961,2.521H257.85a2.2,2.2,0,0,1-2.382-1.961l-9.386-35.579h-9.664v35.3a2.062,2.062,0,0,1-2.242,2.24H219.609a2.061,2.061,0,0,1-2.241-2.24V220.031a2.062,2.062,0,0,1,2.241-2.241h35.159c13.167,0,20.17,7,20.17,20.171Zm-24.653,1.68c3.642,0,5.6-1.961,5.6-5.6V241.882c0-3.642-1.961-5.6-5.6-5.6H236.418v37.54h13.867Z" fill="#3c3c3b"/><path d="M338.813,329.851a2.151,2.151,0,0,1-2.241-1.961l-3.922-20.451H307.716l-3.782,20.451a2.15,2.15,0,0,1-2.241,1.961H286.706c-1.541,0-2.242-.84-1.821-2.381l23.253-107.719a2.179,2.179,0,0,1,2.381-1.961H329.99a2.179,2.179,0,0,1,2.381,1.961L355.624,327.47c.28,1.541-.28,2.381-1.961,2.381ZM320.183,242.3l-8.965,48.886h17.93Z" fill="#3c3c3b"/><path d="M366.832,220.031a2,2,0,0,1,2.241-2.241h33.618c13.167,0,20.171,7.145,20.171,20.312v71.579c0,13.166-7,20.17-20.171,20.17H369.073c-1.541,0-2.241-.7-2.241-2.24ZM398.77,311.36c3.642,0,5.6-1.82,5.6-5.6V242.023c0-3.782-1.961-5.743-5.6-5.743H385.882v75.08Z" fill="#3c3c3b"/><path d="M264.352,187.273c1.339,0,2,.533,1.606,1.2l-14.183,21.984a2.156,2.156,0,0,1-1.963.982h-8.92a2.09,2.09,0,0,1-1.963-.982l-14.094-21.984c-.377-.646.268-1.2,1.6-1.2h8.117a2.2,2.2,0,0,1,1.962.98l8.831,10.635,8.921-10.635a2.205,2.205,0,0,1,1.962-.98Zm-92.659,2.489c.09-1.5.981-2.32,2.8-2.32h10.475c1.821,0,3.248,1.045,2.8,2.32l-8.545,23.777a1.762,1.762,0,0,1-1.681.813h-6.3c-1.12,0-1.206-.648-1.12-1.393Z" fill="#3c3c3b"/></g></svg>