<?xml version="1.0" standalone="no"?>
<!DOCTYPE svg PUBLIC "-//W3C//DTD SVG 20010904//EN"
 "http://www.w3.org/TR/2001/REC-SVG-20010904/DTD/svg10.dtd">
<svg version="1.0" xmlns="http://www.w3.org/2000/svg"
 width="700.000000pt" height="700.000000pt" viewBox="0 0 700.000000 700.000000"
 preserveAspectRatio="xMidYMid meet">
<metadata>
Created by potrace 1.14, written by Peter Selinger 2001-2017
</metadata>
<g transform="translate(0.000000,700.000000) scale(0.100000,-0.100000)"
fill="#000000" stroke="none">
<path d="M0 6781 l0 -218 3500 0 3500 0 0 218 0 219 -3500 0 -3500 0 0 -219z"/>
<path d="M5108 5305 c-2 -2 -30 -5 -63 -8 -139 -14 -261 -66 -340 -146 -102
-102 -165 -311 -180 -599 -6 -116 -6 -2005 0 -2107 15 -231 42 -366 101 -490
86 -184 262 -267 559 -267 400 1 572 121 636 442 17 87 23 189 23 420 l1 215
-225 0 -225 0 -2 -180 c-1 -173 -8 -307 -17 -351 -20 -95 -58 -154 -115 -175
-67 -26 -169 -4 -212 45 -37 42 -49 89 -65 246 -7 74 -7 2193 0 2295 16 218
66 293 199 302 128 9 178 -52 202 -242 3 -22 5 -124 6 -227 0 -186 1 -188 22
-189 63 -3 404 -4 418 -1 15 3 16 26 14 215 -2 117 -6 235 -9 262 -47 350
-165 485 -466 531 -45 6 -257 14 -262 9z"/>
<path d="M1278 5243 c-2 -4 -4 -793 -4 -1753 l1 -1745 365 1 c387 0 456 7 609
55 220 69 315 196 365 485 28 160 30 254 30 1204 0 818 -4 1098 -19 1143 -2 7
-6 31 -9 54 -19 149 -82 306 -154 377 -59 60 -190 127 -264 136 -4 1 -22 6
-40 11 -18 5 -53 12 -78 15 -24 4 -56 8 -70 11 -48 8 -728 14 -732 6z m716
-372 c119 -28 165 -85 185 -231 12 -86 11 -2234 -1 -2302 -31 -183 -105 -231
-364 -237 l-84 -2 0 1396 0 1395 108 -4 c59 -2 129 -9 156 -15z"/>
<path d="M3163 3495 l0 -1755 549 0 548 0 0 185 0 185 -320 0 -320 0 -1 23 c0
12 -1 718 -1 1570 l-1 1547 -227 0 -227 0 0 -1755z"/>
<path d="M0 219 l0 -219 3500 0 3500 0 -2 218 -3 217 -3497 1 -3498 1 0 -218z"/>
</g>
</svg>
